<?xml version="1.0" encoding="utf-8"?>
<!-- Generator: Adobe Illustrator 21.1.0, SVG Export Plug-In . SVG Version: 6.00 Build 0)  -->
<svg version="1.1" id="Layer_1" xmlns="http://www.w3.org/2000/svg" xmlns:xlink="http://www.w3.org/1999/xlink" x="0px" y="0px"
	 viewBox="0 0 186.1 57.6" style="enable-background:new 0 0 186.1 57.6;" xml:space="preserve">
<style type="text/css">
	.st0{fill:#FFFFFF;}
</style>
<g transform="translate(-51.023 -258.443)">
	<g transform="translate(126.494 261.395)">
		<path class="st0" d="M1.4,8.2c0.1-1.3-0.1-2.7-0.7-3.9h4C4.2,5.5,3.9,6.9,4.1,8.2v10.2c0.1,1.8-0.1,3.7-0.5,5.4
			c-0.3,1.8-1.6,3.3-3.4,3.8c0.8-2.9,1.2-6,1.2-9.1V8.2z"/>
		<path class="st0" d="M12.5,22.3H16c1.9,0.1,3.7-0.5,5.2-1.7l-0.5,2.8c-0.8,0.1-1.8,0.1-2.9,0.1H9c0.6-1.2,0.9-2.6,0.8-3.9V8.2
			c0.1-1.3-0.1-2.7-0.7-3.9h10.5l0.1,2.3c-1.1-0.9-2.7-1.1-4.5-1.1h-2.8v7.2c2.3,0,4.8,0,7.1-0.2c-1.1,1.7-4.5,1.7-6.3,1.7h-0.8
			L12.5,22.3z"/>
		<path class="st0" d="M23.5,19.7c1.1,1.9,3.1,3.1,5.4,3c2.3,0,4-1.4,4-3.8c0-5.1-8.6-4.4-8.6-10c0-3.5,2.9-5.2,6-5.2
			c1.6,0,3.1,0.2,4.6,0.2v2.8c-1-1.3-2.6-1.9-4.2-1.8c-2.1,0-3.7,1.1-3.7,3.3c0,4.6,8.6,4.1,8.6,9.8c0,3.7-3.6,5.8-7,5.8
			c-1.8-0.1-3.5-0.4-5.2-1.1L23.5,19.7z"/>
		<path class="st0" d="M55.1,4.3c-0.6,1.2-0.8,2.6-0.7,4v11.3c0,1.4,0,2.9,0.7,3.9l-3.6,0.2l0.1-2c0-0.1-0.1-0.1-0.1-0.1
			c-0.1,0-0.2,0.2-0.4,0.3c-1.6,1.4-3.7,2.1-5.8,2.1c-3.5,0-5.8-1.4-5.9-5.1V8.2c0.1-1.4-0.1-2.7-0.7-4h4c-0.6,1.2-0.8,2.6-0.7,4V17
			c0.1,3.2,1.4,5.2,4.8,5.2c3.5,0,4.6-2.2,4.7-5.8c0-1.1,0.1-2.3,0.1-3.5V8.2c0.1-1.4-0.1-2.7-0.7-4H55.1z"/>
		<path class="st0" d="M58.7,0c0.8,0,1.4,0.6,1.4,1.4s-0.6,1.4-1.4,1.4s-1.4-0.6-1.4-1.4C57.3,0.6,57.9,0,58.7,0
			C58.7,0,58.7,0,58.7,0z M60.3,8.2c0.1-1.3-0.1-2.7-0.7-3.9h4c-0.6,1.2-0.8,2.6-0.7,3.9v11.3c-0.1,1.3,0.1,2.7,0.7,3.9h-4
			c0.6-1.2,0.8-2.6,0.7-3.9V8.2z M64.6,0C65.4,0,66,0.6,66,1.4s-0.6,1.4-1.4,1.4s-1.4-0.6-1.4-1.4C63.2,0.6,63.8,0,64.6,0
			C64.6,0,64.6,0,64.6,0z"/>
		<path class="st0" d="M72,23.5c0.6-1.2,0.8-2.6,0.7-3.9V5.8h-4c-0.8,0-1.5,0.2-2.1,0.7l0.6-2.2h15.1c-0.5,1.3-2.3,1.5-3.6,1.5h-3.3
			v13.7c-0.1,1.3,0.1,2.7,0.7,3.9L72,23.5z"/>
		<path class="st0" d="M87.6,22.3h3.5c1.9,0.1,3.7-0.5,5.2-1.7l-0.5,2.8c-0.8,0.1-1.8,0.1-2.9,0.1h-8.7c0.6-1.2,0.9-2.6,0.8-3.9V8.2
			c0.1-1.3-0.1-2.7-0.7-3.9h10.5l0.1,2.3c-1.1-0.9-2.7-1.1-4.5-1.1h-2.8v7.2c2.3,0,4.8,0,7.1-0.2c-1.1,1.7-4.5,1.7-6.3,1.7h-0.8
			L87.6,22.3z"/>
		<path class="st0" d="M98.4,19.7c1.1,1.9,3.1,3.1,5.4,3c2.3,0,4-1.4,4-3.8c0-5.1-8.6-4.4-8.6-10c0-3.5,2.9-5.2,6-5.2
			c1.6,0,3.1,0.2,4.6,0.2v2.8c-1-1.3-2.6-1.9-4.2-1.8c-2.1,0-3.7,1.1-3.7,3.3c0,4.6,8.6,4.1,8.6,9.8c0,3.7-3.6,5.8-7,5.8
			c-1.8-0.1-3.5-0.4-5.2-1.1L98.4,19.7z"/>
		<path class="st0" d="M2.6,38.8c-0.1,0.6-0.1,1.1-0.1,1.7c0,2.8,1.3,5.5,4.4,5.5c1.4,0,2.7-0.5,3.6-1.4v0.3c0,1.6-2.5,3.1-4.8,3.1
			C1.9,48,0,44.4,0,40.8c0-3.9,2.2-7.2,6.3-7.2c2.9,0,4.6,1.9,4.6,3.9c0,1.4-1,1.4-2.9,1.4H2.6z M5.9,37.9c1.5,0,2.3,0,2.3-1.1
			c0-1.2-1-2.3-2.2-2.3c0,0-0.1,0-0.1,0c-1.9,0-2.7,1.8-3.1,3.4L5.9,37.9z"/>
		<path class="st0" d="M23.1,47.8l-0.1-1.1c0-0.1,0-0.3-0.2-0.3c-1.1,1-2.6,1.5-4.1,1.5c-3.6,0-5.2-3.5-5.2-6.7
			c0-4.8,3.1-7.7,7.9-7.7c0.5,0,1,0,1.6,0.1v-3.8c0-1.2,0-2.4-0.7-3l2.9-0.5v17.8c-0.1,1.1,0.1,2.2,0.5,3.2L23.1,47.8z M23,36.8
			c0-1.4-0.3-2.2-1.9-2.2c-3.3,0-5.1,2.5-5.1,6c0,2.7,1.3,5.8,4.4,5.8c1.7,0,2.6-1.3,2.6-3V36.8z"/>
		<path class="st0" d="M37.6,36.1c0-1,0-1.6-0.7-2l2.9-0.5v10.9c0,1.2,0,2.4,0.6,3l-2.8,0.2v-1.1c0-0.2,0-0.5-0.1-0.5
			c-1,1.1-2.4,1.8-3.9,1.8c-2,0-3.7-1.4-3.7-4V36c0-1,0-1.6-0.7-2c0.8-0.1,2-0.4,2.4-0.4c0.4,0,0.5,0.2,0.5,0.7v8.1
			c0,1.9,0.3,4,2.7,4c2.7,0,2.8-3,2.8-5.1L37.6,36.1z"/>
		<path class="st0" d="M53.9,37h-0.1c-0.7-1.4-1.3-2.3-3-2.3c-2.7,0-4.2,2.8-4.2,6.1c0,3,1.1,5.5,4.4,5.5c1.2,0,2.4-0.5,3.3-1.4v0.5
			c0,1.6-2.1,2.6-4.4,2.6c-3.8,0-6-3.1-6-6.7c0-4.3,2.8-7.6,7.2-7.6c0.9-0.1,1.9,0.1,2.8,0.4L53.9,37z"/>
		<path class="st0" d="M64.7,47.7c-0.3-1.1-0.2-1.9-0.5-1.9c-0.1,0-0.1,0-0.2,0.1C63.3,47,62.6,48,60.5,48c-2.1,0-3.7-1.1-3.7-3.3
			c0-2.6,3.4-3.7,5.4-4.7c1.7-0.8,2.1-0.9,2.1-2.8c0-1.5-0.6-2.6-2.3-2.6c-2.9,0-1.7,2.9-3.6,2.9c-0.5,0.1-1-0.3-1.1-0.8
			c0-0.1,0-0.1,0-0.2c0-2,3-2.7,5.4-2.7c2.1,0,4,0.5,4,2.4v6.6c0,1.8-0.1,3.6,0.8,4.8L64.7,47.7z M61.6,46.3c1.8,0,2.7-1.6,2.7-3.3
			v-3l-1.6,0.8c-2.2,1.1-3.4,1.7-3.4,3.4c-0.1,1.1,0.8,2.1,1.9,2.2C61.4,46.3,61.5,46.3,61.6,46.3L61.6,46.3z"/>
		<path class="st0" d="M80.2,37H80c-0.7-1.4-1.3-2.3-3-2.3c-2.7,0-4.2,2.8-4.2,6.1c0,3,1.1,5.5,4.4,5.5c1.2,0,2.4-0.5,3.3-1.4v0.5
			c0,1.6-2.1,2.6-4.4,2.6c-3.8,0-6-3.1-6-6.7c0-4.3,2.8-7.6,7.2-7.6c0.9-0.1,1.9,0.1,2.8,0.4V37z"/>
		<path class="st0" d="M86.1,28.6l1.4,2L85.4,32l-1.4-2L86.1,28.6z M86.9,33.6v10.6c-0.1,1.1,0.1,2.2,0.5,3.2h-3.3
			c0.5-1,0.6-2.1,0.5-3.2v-8.1c0-1,0-1.6-0.7-2L86.9,33.6z"/>
		<path class="st0" d="M96.9,48c-4.2,0-5.8-3.4-5.8-6.7c0-4.7,2.6-7.7,7.1-7.7c4.2,0,5.8,3.4,5.8,6.7C104,44.9,101.4,48,96.9,48z
			 M97.9,46.9c2.8,0,3.6-2.8,3.6-5.3c0-3.5-1.1-6.9-4.3-6.9c-2.8,0-3.6,2.8-3.6,5.3C93.6,43.5,94.7,46.9,97.9,46.9z M96.4,32.1h-1.1
			l4.3-4.2c0.3-0.3,0.8-0.8,1.3-0.8c0.6,0,1,0.5,1,1.1c0,0.4-0.2,0.7-0.6,0.9L96.4,32.1z"/>
	</g>
	<g transform="translate(51.023 258.443)">
		<path class="st0" d="M57.6,57.6H0V0h14L2.3,11.5l14.9-7.7L9.6,18.8L21.4,6.9l-2.7,16.5l7.6-15L28.8,25l2.6-16.6l7.6,15L36.2,6.9
			L48,18.8L40.4,3.9l14.9,7.7L43.7,0h14L57.6,57.6z"/>
	</g>
</g>
</svg>
